:FULLY-SPECIFIED
:FORCE-ALL-JOINTS-BE-3DOF
:DEGREES
136
root 6.58316 16.1647 -26.2804 4.53542 5.39336 -1.64241
lfemur -16.6644 -4.9695 -5.71249
ltibia 27.9334 0 0
lfoot -23.0551 -5.89342 0
ltoes 23.1064 0 0
rfemur -31.3477 -13.4404 0.601589
rtibia 68.6538 0 0
rfoot 3.15539 21.9812 0
rtoes 10.6825 0 0
lowerback -1.10535 0.990614 1.34779
upperback -1.28385 1.40879 -1.29742
thorax -0.794712 0.694205 -2.23781
lowerneck -11.1137 -3.09851 4.10093
upperneck 0.763439 -4.73135 1.35864
head 2.0802 -2.26244 -0.482618
lclavicle -1.92836e-17 -6.90123e-15 0
lhumerus -51.5821 -19.376 100.089
lradius 50.9895 0 0
lwrist 20.804 0 0
lhand 19.3048 16.1993 0
lfingers 7.12502 0 0
lthumb 43.5757 37.863 0
rclavicle -1.92836e-17 -6.90123e-15 0
rhumerus -29.2323 -3.31813 -49.7647
rradius 52.5278 0 0
rwrist -11.9471 0 0
rhand -15.2589 -22.8599 0
rfingers 7.12502 0 0
rthumb 10.9147 -147.075 0
137
root 6.54675 16.1457 -26.268 4.55532 5.1479 -1.55042
lfemur -16.2148 -4.95791 -5.55438
ltibia 27.4656 0 0
lfoot -23.2849 -5.98973 0
ltoes 23.4503 0 0
rfemur -31.3068 -13.5495 0.328847
rtibia 68.3761 0 0
rfoot 2.61264 21.9616 0
rtoes 11.5474 0 0
lowerback -1.17577 0.94798 1.34559
upperback -1.28226 1.3538 -1.41534
thorax -0.757857 0.666763 -2.36089
lowerneck -11.1414 -3.01732 4.16657
upperneck 0.823973 -4.63581 1.36533
head 2.10458 -2.21229 -0.488165
lclavicle -3.20191e-16 -7.15603e-15 0
lhumerus -51.7439 -19.8368 100.373
lradius 51.044 0 0
lwrist 20.9467 0 0
lhand 19.7226 16.4988 0
lfingers 7.12502 0 0
lthumb 43.9568 37.9562 0
rclavicle -3.20191e-16 -7.15603e-15 0
rhumerus -28.694 -3.47657 -48.9014
rradius 52.5598 0 0
rwrist -12.271 0 0
rhand -15.1877 -23.2747 0
rfingers 7.12502 0 0
rthumb 10.9834 -151.08 0
138
root 6.51001 16.1266 -26.2555 4.57592 4.90039 -1.45741
lfemur -15.7615 -4.94524 -5.39626
ltibia 26.9946 0 0
lfoot -23.5179 -6.08641 0
ltoes 23.7993 0 0
rfemur -31.2648 -13.6585 0.0557715
rtibia 68.0928 0 0
rfoot 2.06231 21.9388 0
rtoes 12.4212 0 0
lowerback -1.24675 0.905121 1.34267
upperback -1.28067 1.29852 -1.53397
thorax -0.720783 0.639192 -2.4843
lowerneck -11.1691 -2.93543 4.2325
upperneck 0.884842 -4.53943 1.37196
head 2.12909 -2.16172 -0.493747
lclavicle -6.24044e-16 -7.41649e-15 0
lhumerus -51.9061 -20.3014 100.66
lradius 51.0977 0 0
lwrist 21.0891 0 0
lhand 20.1415 16.8004 0
lfingers 7.12502 0 0
lthumb 44.3389 38.0503 0
rclavicle -6.24044e-16 -7.41649e-15 0
rhumerus -28.1526 -3.63552 -48.0338
rradius 52.5915 0 0
rwrist -12.5958 0 0
rhand -15.1165 -23.6931 0
rfingers 7.12502 0 0
rthumb 11.052 -155.122 0
139
root 6.47299 16.1074 -26.2431 4.59723 4.65113 -1.3634
lfemur -15.3047 -4.93148 -5.23821
ltibia 26.5208 0 0
lfoot -23.754 -6.18347 0
ltoes 24.153 0 0
rfemur -31.2218 -13.7674 -0.217441
rtibia 67.8042 0 0
rfoot 1.50487 21.9129 0
rtoes 13.3035 0 0
lowerback -1.31823 0.862051 1.33903
upperback -1.27908 1.24297 -1.65324
thorax -0.683505 0.6115 -2.60797
lowerneck -11.1968 -2.85294 4.29869
upperneck 0.946006 -4.44229 1.37854
head 2.15372 -2.11075 -0.499353
lclavicle -9.30444e-16 -7.68246e-15 0
lhumerus -52.0687 -20.7695 100.948
lradius 51.1507 0 0
lwrist 21.2312 0 0
lhand 20.5613 17.1039 0
lfingers 7.12502 0 0
lthumb 44.7217 38.1453 0
rclavicle -9.30444e-16 -7.68246e-15 0
rhumerus -27.6083 -3.79474 -47.1627
rradius 52.6229 0 0
rwrist -12.9211 0 0
rhand -15.0452 -24.1147 0
rfingers 7.12502 0 0
rthumb 11.1208 -159.199 0
140
root 6.4357 16.088 -26.2307 4.61923 4.40042 -1.26841
lfemur -14.8447 -4.91662 -5.08032
ltibia 26.0444 0 0
lfoot -23.993 -6.2809 0
ltoes 24.5114 0 0
rfemur -31.1779 -13.876 -0.490595
rtibia 67.5106 0 0
rfoot 0.940815 21.8841 0
rtoes 14.1935 0 0
lowerback -1.39014 0.818784 1.33467
upperback -1.27746 1.18715 -1.77308
thorax -0.646043 0.583692 -2.73183
lowerneck -11.2245 -2.7699 4.36508
upperneck 1.00743 -4.34448 1.3851
head 2.17845 -2.05944 -0.504971
lclavicle -1.23899e-15 -7.95376e-15 0
lhumerus -52.2316 -21.2409 101.239
lradius 51.2029 0 0
lwrist 21.3729 0 0
lhand 20.9819 17.4092 0
lfingers 7.12502 0 0
lthumb 45.1051 38.2412 0
rclavicle -1.23899e-15 -7.95376e-15 0
rhumerus -27.0615 -3.95399 -46.2884
rradius 52.6542 0 0
rwrist -13.2467 0 0
rhand -14.9739 -24.5392 0
rfingers 7.12502 0 0
rthumb 11.1896 -163.312 0
141
root 6.39819 16.0686 -26.2183 4.64191 4.14853 -1.17247
lfemur -14.3818 -4.90064 -4.92268
ltibia 25.566 0 0
lfoot -24.2347 -6.3787 0
ltoes 24.8741 0 0
rfemur -31.1331 -13.9845 -0.763495
rtibia 67.2123 0 0
rfoot 0.370638 21.8523 0
rtoes 15.0908 0 0
lowerback -1.46241 0.775333 1.32959
upperback -1.27581 1.1311 -1.89344
thorax -0.608415 0.555776 -2.85581
lowerneck -11.2522 -2.6864 4.43162
upperneck 1.06906 -4.24609 1.39166
head 2.20327 -2.00783 -0.510588
lclavicle -1.5493e-15 -8.23023e-15 0
lhumerus -52.3947 -21.7152 101.532
lradius 51.2544 0 0
lwrist 21.5142 0 0
lhand 21.4029 17.7159 0
lfingers 7.12502 0 0
lthumb 45.4889 38.3377 0
rclavicle -1.5493e-15 -8.23023e-15 0
rhumerus -26.5127 -4.11304 -45.4117
rradius 52.6853 0 0
rwrist -13.5725 0 0
rhand -14.9025 -24.9663 0
rfingers 7.12502 0 0
rthumb 11.2585 -167.458 0
142
root 6.36048 16.0491 -26.2059 4.66526 3.89577 -1.07559
lfemur -13.9163 -4.88352 -4.76539
ltibia 25.0857 0 0
lfoot -24.4788 -6.47689 0
ltoes 25.241 0 0
rfemur -31.0876 -14.0927 -1.03594
rtibia 66.9095 0 0
rfoot -0.205174 21.8177 0
rtoes 15.9946 0 0
lowerback -1.53496 0.731711 1.3238
upperback -1.27412 1.07482 -2.01424
thorax -0.570639 0.527761 -2.97985
lowerneck -11.2799 -2.60249 4.49826
upperneck 1.13088 -4.1472 1.39823
head 2.22817 -1.95597 -0.516192
lclavicle -1.86096e-15 -8.51172e-15 0
lhumerus -52.5578 -22.1923 101.827
lradius 51.3052 0 0
lwrist 21.6551 0 0
lhand 21.8242 18.0239 0
lfingers 7.12502 0 0
lthumb 45.8729 38.4349 0
rclavicle -1.86096e-15 -8.51172e-15 0
rhumerus -25.9622 -4.27164 -44.5331
rradius 52.7163 0 0
rwrist -13.8983 0 0
rhand -14.831 -25.3956 0
rfingers 7.12502 0 0
rthumb 11.3274 -171.636 0
143
root 6.3226 16.0295 -26.1935 4.68928 3.64244 -0.977805
lfemur -13.4485 -4.86526 -4.60853
ltibia 24.604 0 0
lfoot -24.7252 -6.57547 0
ltoes 25.6119 0 0
rfemur -31.0415 -14.2007 -1.30775
rtibia 66.6024 0 0
rfoot -0.78613 21.7802 0
rtoes 16.9045 0 0
lowerback -1.60774 0.687931 1.31728
upperback -1.27236 1.01833 -2.13544
thorax -0.532733 0.499651 -3.10389
lowerneck -11.3074 -2.51826 4.56494
upperneck 1.19283 -4.04789 1.40484
head 2.25312 -1.9039 -0.521772
lclavicle -2.17357e-15 -8.79804e-15 0
lhumerus -52.7209 -22.672 102.123
lradius 51.3554 0 0
lwrist 21.7955 0 0
lhand 22.2456 18.333 0
lfingers 7.12502 0 0
lthumb 46.2569 38.5328 0
rclavicle -2.17357e-15 -8.79804e-15 0
rhumerus -25.4104 -4.42955 -43.6532
rradius 52.7474 0 0
rwrist -14.2238 0 0
rhand -14.7595 -25.8269 0
rfingers 7.12502 0 0
rthumb 11.3964 -175.844 0
